<svg width="174" height="52" viewBox="0 0 174 52" fill="none" xmlns="http://www.w3.org/2000/svg">
<path d="M61.3779 41.25V13.4056H71.5065C73.3753 13.4056 75.0198 13.7545 76.44 14.4521C77.8852 15.1249 79.0064 16.1215 79.8038 17.4421C80.6011 18.7378 80.9998 20.2951 80.9998 22.114C80.9998 23.908 80.5886 25.4528 79.7664 26.7485C78.969 28.0442 77.8603 29.0408 76.44 29.7385C75.0198 30.4362 73.3753 30.785 71.5065 30.785H65.7881V41.25H61.3779ZM65.7881 26.8606H71.6186C72.6153 26.8606 73.4874 26.6613 74.2349 26.2626C74.9824 25.864 75.5679 25.3158 75.9915 24.6181C76.4151 23.8955 76.6269 23.0484 76.6269 22.0766C76.6269 21.1049 76.4151 20.2702 75.9915 19.5725C75.5679 18.8499 74.9824 18.3017 74.2349 17.928C73.4874 17.5293 72.6153 17.33 71.6186 17.33H65.7881V26.8606ZM84.3816 41.25V21.0301H88.4181V25.104L88.0444 24.506C88.4929 23.1854 89.2154 22.2386 90.2121 21.6655C91.2088 21.0675 92.4048 20.7685 93.8001 20.7685H95.0335V24.6181H93.2769C91.8815 24.6181 90.7478 25.0542 89.8757 25.9262C89.0286 26.7734 88.605 27.9943 88.605 29.589V41.25H84.3816ZM97.1752 41.25V21.0301H101.399V41.25H97.1752ZM97.1752 18.2644V13.4056H101.399V18.2644H97.1752ZM111.457 41.25L103.533 21.0301H108.13L114.223 37.5125H112.541L118.633 21.0301H123.267L115.306 41.25H111.457ZM123.559 41.25V37.7741L135.444 23.3847L136.117 24.8424H124.12V21.0301H139.855V24.4686L128.119 38.8954L127.446 37.4004H139.892V41.25H123.559ZM151.729 41.6985C149.71 41.6985 147.916 41.2375 146.347 40.3156C144.802 39.3688 143.593 38.098 142.721 36.5034C141.849 34.8838 141.413 33.0773 141.413 31.084C141.413 29.0408 141.849 27.2344 142.721 25.6646C143.618 24.0949 144.814 22.8615 146.309 21.9645C147.804 21.0426 149.499 20.5816 151.392 20.5816C152.912 20.5816 154.27 20.8432 155.466 21.3665C156.662 21.8897 157.671 22.6123 158.494 23.5342C159.316 24.4312 159.939 25.4653 160.362 26.6364C160.811 27.8075 161.035 29.0533 161.035 30.3739C161.035 30.6978 161.023 31.0342 160.998 31.383C160.973 31.7318 160.923 32.0557 160.848 32.3547H144.74V28.991H158.456L156.438 30.5234C156.687 29.3025 156.6 28.2186 156.176 27.2717C155.778 26.3 155.155 25.54 154.308 24.9919C153.485 24.4188 152.514 24.1322 151.392 24.1322C150.271 24.1322 149.274 24.4188 148.402 24.9919C147.53 25.54 146.858 26.3374 146.384 27.3839C145.911 28.4055 145.724 29.6513 145.823 31.1214C145.699 32.4918 145.886 33.6878 146.384 34.7094C146.907 35.731 147.63 36.5283 148.552 37.1014C149.499 37.6745 150.57 37.961 151.766 37.961C152.987 37.961 154.021 37.6869 154.868 37.1387C155.74 36.5906 156.426 35.8805 156.924 35.0084L160.362 36.6902C159.964 37.6371 159.341 38.4967 158.494 39.2691C157.671 40.0166 156.675 40.6146 155.504 41.0631C154.357 41.4867 153.099 41.6985 151.729 41.6985Z" fill="#293EEA"/>
<path fill-rule="evenodd" clip-rule="evenodd" d="M10.0073 5.49438H30.8073V11.3812H10.0073V5.49438ZM27.6679 17.2679H10.0075V23.1547V29.0415V34.9283L10.0075 46.7019L15.6981 46.7019L15.6981 34.9283H30.8075V34.9232C38.7541 34.7152 45.1321 28.2081 45.1321 20.2114C45.1321 12.2146 38.7541 5.70754 30.8075 5.49951V11.3897C35.5022 11.5951 39.2453 15.4661 39.2453 20.2114C39.2453 24.9566 35.5022 28.8277 30.8075 29.033V29.0415H15.6981V23.1547H27.6679V17.2679ZM27.6679 40.8151V46.7019H21.7811V40.8151H27.6679Z" fill="url(#paint0_linear_149_102)"/>
<defs>
<linearGradient id="paint0_linear_149_102" x1="41.6979" y1="1.76608" x2="10.0073" y2="49.5472" gradientUnits="userSpaceOnUse">
<stop stop-color="#4F4CFF"/>
<stop offset="1" stop-color="#002FD4"/>
</linearGradient>
</defs>
</svg>
